<svg width="32" height="32" viewBox="0 0 32 32" fill="none" xmlns="http://www.w3.org/2000/svg">
<circle cx="16" cy="16" r="15" fill="#15803D" stroke="#FB8500" stroke-width="2"/>
<path d="M22.8535 20.1953C22.8535 18.5352 21.9355 17.1387 20.0996 16.0059C19.8262 15.8496 18.7715 15.3223 16.9355 14.4238C15.2559 13.584 14.2109 12.7637 13.8008 11.9629C13.5859 11.5332 13.4785 11.0938 13.4785 10.6445C13.4785 9.47266 14.0449 8.67187 15.1777 8.24219C15.627 8.06641 16.1055 7.97852 16.6133 7.97852C18.2148 7.97852 19.4258 8.55469 20.2461 9.70703C20.793 10.4883 21.0664 11.416 21.0664 12.4902H22.1211V7.24609C21.5742 7.24609 21.2617 7.43164 21.1836 7.80273C21.1641 7.93945 21.1543 8.0957 21.1543 8.27148C19.6113 7.50977 17.9512 7.12891 16.1738 7.12891C13.9082 7.12891 12.1797 7.73437 10.9883 8.94531C10.207 9.74609 9.81641 10.6934 9.81641 11.7871C9.81641 13.4277 10.7344 14.8047 12.5703 15.918C12.8633 16.0742 13.9375 16.6113 15.793 17.5293C17.5117 18.3691 18.5762 19.1992 18.9863 20.0195C19.2012 20.4297 19.3086 20.8594 19.3086 21.3086C19.3086 22.6758 18.6738 23.6133 17.4043 24.1211C16.8965 24.3359 16.3301 24.4434 15.7051 24.4434C13.3809 24.4434 11.8477 23.3008 11.1055 21.0156C10.9102 20.3711 10.7832 19.668 10.7246 18.9062H9.66992V25.0586C10.1582 25.0586 10.4512 24.9121 10.5488 24.6191C10.5879 24.4434 10.6074 24.1699 10.6074 23.7988C12.1309 24.7949 13.918 25.293 15.9688 25.293C18.3711 25.293 20.2168 24.668 21.5059 23.418C22.4043 22.5391 22.8535 21.4648 22.8535 20.1953Z" fill="#FB8500"/>
</svg>
